<svg width="49" height="81" viewBox="0 0 49 81" fill="none" xmlns="http://www.w3.org/2000/svg">
<g id="Frame 510">
<path id="Subtract" fill-rule="evenodd" clip-rule="evenodd" d="M0 0H48.8339V70.7593H0V0ZM42.8235 64.3628C42.8502 64.2822 42.8601 64.1968 42.8526 64.1121C42.7709 54.0515 42.6826 43.9892 42.5878 33.9252H19.9712L10.6048 63.4649H7.66249L17.2299 34.5426L7.22605 6.34724C7.16486 6.20481 7.05263 6.09132 6.9121 6.02977C6.77157 5.96822 6.61325 5.9632 6.46922 6.01575C6.32518 6.06829 6.20621 6.17446 6.1364 6.31275C6.06659 6.45103 6.05117 6.61109 6.09326 6.76049L15.9549 34.5575L5.98047 64.6897H11.4973L20.849 35.1401H41.3961L41.6511 64.1121C41.6436 64.1968 41.6535 64.2822 41.6803 64.3628C41.707 64.4435 41.75 64.5175 41.8066 64.5803C41.8631 64.6431 41.9319 64.6933 42.0085 64.7276C42.0852 64.762 42.1681 64.7797 42.2519 64.7797C42.3357 64.7797 42.4185 64.762 42.4952 64.7276C42.5719 64.6933 42.6407 64.6431 42.6972 64.5803C42.7537 64.5175 42.7967 64.4435 42.8235 64.3628Z" fill="#FFD15C"/>
<g id="WOODFANS">
<path d="M1.60713 79.8573L0 73.4287H0.780604L2.15814 79.0766H2.34181L3.81118 73.4287H4.91321L6.38258 79.0766H6.56626L7.94379 73.4287H8.72439L7.11727 79.8573H5.83157L4.45403 74.4849H4.27036L2.89283 79.8573H1.60713Z" fill="white"/>
<path d="M14.1286 79.0215C13.5348 79.6399 12.8062 79.9491 11.943 79.9491C11.0797 79.9491 10.3511 79.6399 9.75726 79.0215C9.16339 78.4032 8.86645 77.6103 8.86645 76.643C8.86645 75.6757 9.16339 74.8828 9.75726 74.2645C10.3511 73.6461 11.0797 73.3369 11.943 73.3369C12.8062 73.3369 13.5348 73.6461 14.1286 74.2645C14.7225 74.8828 15.0194 75.6757 15.0194 76.643C15.0194 77.6103 14.7225 78.4032 14.1286 79.0215ZM10.2807 78.5348C10.7338 79.0185 11.2879 79.2603 11.943 79.2603C12.598 79.2603 13.1521 79.0185 13.6052 78.5348C14.0582 78.045 14.2848 77.4144 14.2848 76.643C14.2848 75.8716 14.0582 75.244 13.6052 74.7604C13.1521 74.2706 12.598 74.0257 11.943 74.0257C11.2879 74.0257 10.7338 74.2706 10.2807 74.7604C9.82767 75.244 9.60114 75.8716 9.60114 76.643C9.60114 77.4144 9.82767 78.045 10.2807 78.5348Z" fill="white"/>
<path d="M20.7365 79.0215C20.1426 79.6399 19.4141 79.9491 18.5508 79.9491C17.6876 79.9491 16.959 79.6399 16.3651 79.0215C15.7713 78.4032 15.4743 77.6103 15.4743 76.643C15.4743 75.6757 15.7713 74.8828 16.3651 74.2645C16.959 73.6461 17.6876 73.3369 18.5508 73.3369C19.4141 73.3369 20.1426 73.6461 20.7365 74.2645C21.3304 74.8828 21.6273 75.6757 21.6273 76.643C21.6273 77.6103 21.3304 78.4032 20.7365 79.0215ZM16.8886 78.5348C17.3416 79.0185 17.8957 79.2603 18.5508 79.2603C19.2059 79.2603 19.76 79.0185 20.213 78.5348C20.6661 78.045 20.8926 77.4144 20.8926 76.643C20.8926 75.8716 20.6661 75.244 20.213 74.7604C19.76 74.2706 19.2059 74.0257 18.5508 74.0257C17.8957 74.0257 17.3416 74.2706 16.8886 74.7604C16.4355 75.244 16.209 75.8716 16.209 76.643C16.209 77.4144 16.4355 78.045 16.8886 78.5348Z" fill="white"/>
<path d="M22.3577 79.8573V73.4287H24.5158C25.4097 73.4287 26.1444 73.7318 26.7199 74.3379C27.3015 74.9379 27.5923 75.7063 27.5923 76.643C27.5923 77.5797 27.3015 78.3511 26.7199 78.9573C26.1444 79.5573 25.4097 79.8573 24.5158 79.8573H22.3577ZM23.0924 79.1685H24.5158C25.1893 79.1685 25.7464 78.9358 26.1872 78.4705C26.6342 77.9991 26.8577 77.3899 26.8577 76.643C26.8577 75.8961 26.6342 75.29 26.1872 74.8247C25.7464 74.3532 25.1893 74.1175 24.5158 74.1175H23.0924V79.1685Z" fill="white"/>
<path d="M28.3288 79.8573V73.4287H32.3696V74.1175H29.0635V76.2757H32.1859V76.9644H29.0635V79.8573H28.3288Z" fill="white"/>
<path d="M31.9599 79.8573L34.3936 73.4287H35.4956L37.9292 79.8573H37.1486L36.5517 78.2042H33.3374L32.7405 79.8573H31.9599ZM33.613 77.5154H36.2762L35.0364 74.2094H34.8527L33.613 77.5154Z" fill="white"/>
<path d="M38.2083 79.8573V73.4287H39.4481L42.3409 78.9848H42.5246V73.4287H43.2593V79.8573H42.0195L39.1267 74.3012H38.943V79.8573H38.2083Z" fill="white"/>
<path d="M43.9477 77.9746H44.6824C44.6824 78.3358 44.8324 78.642 45.1324 78.893C45.4385 79.1379 45.8548 79.2603 46.3814 79.2603C46.9201 79.2603 47.3211 79.1562 47.5844 78.9481C47.8538 78.7338 47.9885 78.4552 47.9885 78.1124C47.9885 77.5491 47.6211 77.1971 46.8864 77.0563L45.6467 76.8267C44.6059 76.6308 44.0855 76.0797 44.0855 75.1736C44.0855 74.6349 44.2844 74.194 44.6824 73.8512C45.0803 73.5083 45.6161 73.3369 46.2895 73.3369C47.0058 73.3369 47.5813 73.5267 48.016 73.9063C48.4568 74.2798 48.6772 74.7481 48.6772 75.3114H47.9426C47.9426 74.9502 47.7926 74.6471 47.4926 74.4022C47.1987 74.1512 46.7977 74.0257 46.2895 74.0257C45.8242 74.0257 45.463 74.1328 45.2059 74.3471C44.9487 74.5614 44.8201 74.8369 44.8201 75.1736C44.8201 75.7124 45.1722 76.0491 45.8763 76.1838L46.8864 76.3675C47.5232 76.4838 47.9885 76.6828 48.2824 76.9644C48.5762 77.2461 48.7232 77.6287 48.7232 78.1124C48.7232 78.6573 48.5181 79.1011 48.1079 79.444C47.6977 79.7807 47.1222 79.9491 46.3814 79.9491C45.6467 79.9491 45.0559 79.7593 44.6089 79.3797C44.1681 78.994 43.9477 78.5256 43.9477 77.9746Z" fill="white"/>
</g>
</g>
</svg>
